time,note,velocity
0,48,95
0,60,95
0.0119426875,67,96
0.015923583333333335,70,98
0.0119426875,75,99
0,43,95
0,55,95
0.0119426875,62,96
0.015923583333333335,65,98
0.0119426875,70,99
0,70,99
0,44,95
0,56,95
0.0119426875,63,96
0.015923583333333335,67,98
0.0119426875,72,99
0,39,95
0,51,95
0.0119426875,58,96
0.015923583333333335,62,98
0.0119426875,67,99
0,65,99
