time,note,velocity
0,51,88
0,63,77
0,66,79
0.37037,61,99
0.46296249999999994,59,89
0,61,74
0.185185,51,94
0.185185,59,85
0.37037,58,91
0.37037,54,85
0,63,85
0,66,83
0.37037,61,91
0.46296249999999994,59,75
0,61,83
0.185185,54,77
0.185185,59,97
0.37037,58,95
0.37037,59,91
0,63,78
0,47,76
0.37037,61,82
0.46296249999999994,59,92
0,61,76
0.185185,47,97
0.9259249999999999,58,78
0.185185,59,89
0,63,88
0,49,89
0.37037,61,90
0.46296249999999994,59,91
0,61,95
0.185185,49,75
0.9259249999999999,58,97
