time,note,velocity
0,57,110
0,43,105
0.02125848958333333,59,107
0.004251697916666667,62,111
0.017006791666666667,66,108
0,40,105
0.02125848958333333,55,107
0.02125848958333333,62,108
0.02125848958333333,66,110
0.02125848958333333,71,111
0,38,105
0.02125848958333333,54,107
0.02125848958333333,61,108
0.02125848958333333,64,110
0.02125848958333333,69,111
0,35,105
0.02125848958333333,50,107
0.02125848958333333,57,108
0.02125848958333333,61,110
0.02125848958333333,66,111
