time,note,velocity
0,52,91
0.025201614583333334,56,90
0.025201614583333334,59,95
0.025201614583333334,63,100
0,52,96
0.025201614583333334,56,89
0.025201614583333334,63,98
0.025201614583333334,71,94
0,52,96
0.025201614583333334,59,93
0.025201614583333334,63,94
0.025201614583333334,68,94
0,56,96
0.025201614583333334,59,90
0.025201614583333334,63,93
0.025201614583333334,64,90
0,52,99
0.025201614583333334,56,98
0.025201614583333334,59,96
0.025201614583333334,63,91
0,52,90
0.025201614583333334,56,92
0.025201614583333334,59,97
0.025201614583333334,63,90
0,52,99
0.025201614583333334,56,91
0.025201614583333334,59,95
0.025201614583333334,63,95
0,52,95
0.025201614583333334,56,96
0.025201614583333334,59,96
0.025201614583333334,75,98
0,47,89
0.025201614583333334,51,99
0.025201614583333334,54,98
0.025201614583333334,58,99
0,47,93
0.025201614583333334,51,89
0.025201614583333334,58,100
0.025201614583333334,66,91
0,47,94
0.025201614583333334,54,94
0.025201614583333334,58,97
0.025201614583333334,63,95
0,51,89
0.025201614583333334,54,93
0.025201614583333334,58,100
0.025201614583333334,59,90
0,47,96
0.025201614583333334,51,89
0.025201614583333334,54,94
0.025201614583333334,58,89
0,47,95
0.025201614583333334,51,94
0.025201614583333334,54,92
0.025201614583333334,58,90
0,47,90
0.025201614583333334,51,94
0.025201614583333334,54,98
0.025201614583333334,58,94
0,47,98
0.025201614583333334,51,94
0.025201614583333334,54,93
0.025201614583333334,70,97
