time,note,velocity
0,60,38
0,69,46
0.18987349999999997,57,44
0.18987349999999997,50,25
0,69,65
0,58,38
0,65,34
0,64,47
0,60,42
0,53,41
0,57,28
0,62,34
0,52,25
0,58,22
0,64,44
0,55,21
0,65,55
0,60,38
0,69,46
0.18987349999999997,57,44
0.18987349999999997,50,25
0,72,65
0,57,38
0,60,42
0,64,47
0,67,34
0,53,41
0,57,28
0,62,34
0,64,44
0,58,22
0,52,25
0.027689885416666664,74,63
0.5696205,72,46
0,65,55
0,55,21
0.027689885416666664,72,51
0.039556979166666666,69,61
