time,note,velocity
0,75,58
0,39,36
0,60,36
0,62,64
0,65,81
0.7272719999999999,74,45
0,72,60
0,77,76
0,72,64
0,67,50
0,62,45
0,60,36
0,38,36
0,74,58
0,72,83
0,70,66
0,70,66
0,39,36
0,60,36
0,62,64
0,65,81
0.7272719999999999,67,58
0,69,58
0,70,76
0,72,62
0,36,36
0,60,36
0,65,45
0,74,64
0,62,58
0,67,52
0,38,76
