time,note,velocity
0,42,35
0,66,72
0.74074,61,52
0.37037,57,24
0.37037,56,47
0.74074,54,66
0.0925925,54,54
0.0925925,42,35
0,66,72
0.74074,61,52
0.37037,57,24
0.37037,56,47
0.74074,54,66
0.0925925,54,54
0.0925925,30,35
0,66,72
0.74074,61,52
0.37037,57,24
0.37037,56,47
0.74074,54,66
0.0925925,54,54
0.0925925,69,81
0,38,35
0.74074,61,52
0.37037,57,24
0.37037,68,67
0,56,47
0.74074,54,66
0.0925925,54,54
