time,note,velocity
0,70,54
0,66,78
0,61,72
0,58,60
0,51,31
1.0714275,73,91
0.6428564999999999,75,50
1.0714275,80,50
0,78,54
0,56,78
0,51,23
0,60,78
0,75,85
0,73,54
0.21428549999999996,70,72
0,70,54
0,58,78
0,54,78
0,47,41
1.0714275,73,91
0.6428564999999999,68,50
1.0714275,70,50
0,73,54
0,63,78
0,56,78
0,49,27
0,68,85
0,66,54
0.21428549999999996,68,72
0.6428564999999999,70,74
