time,note,velocity
0,37,45
0.36363599999999996,56,60
0.36363599999999996,68,85
0.36363599999999996,57,56
0,61,66
0.36363599999999996,64,99
0,42,45
0,66,85
0.36363599999999996,56,60
0,33,66
0,64,85
0.36363599999999996,57,56
0,61,66
0,32,43
0,63,99
0,37,45
0.36363599999999996,56,60
0.36363599999999996,68,85
0.36363599999999996,57,56
0,61,66
0.36363599999999996,64,99
0,42,45
0,66,85
0.36363599999999996,56,60
0,33,66
0,64,85
0.36363599999999996,57,56
0,61,66
0,63,99
0,32,43
0,61,52
