time,note,velocity
0,57,68
0,55,68
0,53,52
0,38,23
0.065559375,62,91
0,33,23
0,45,52
0,57,68
0,55,68
0.065559375,60,91
1.6127606250000002,65,23
0,67,54
0,65,43
0,69,101
0,57,68
0,50,52
0,41,23
0,65,68
0.065559375,69,91
2.451920625,72,64
0,60,68
0,53,68
0,43,52
0,33,23
0.065559375,62,91
1.6127606250000002,65,23
0,69,54
0,67,43
0,65,101
