time,note,velocity
0,38,50
0.5960265,69,83
0.5960265,57,58
0,60,34
0,64,47
0,40,50
0.5960265,67,83
0.5960265,55,58
0,59,34
0,62,47
0,45,39
0,38,50
0.5960265,69,83
0.5960265,57,58
0,60,34
0,64,47
0.397351,76,39
0.397351,74,59
0.1986755,72,50
0,71,76
0,72,53
0,71,86
0,40,50
0.5960265,67,83
0,69,66
0,55,58
0,59,34
0,62,47
0,45,39
