time,note,velocity
0,37,56
0,68,72
0.75,57,41
0,37,56
0,66,72
0.375,64,58
0,59,43
0,49,35
0,63,78
0,56,68
0,66,72
0,37,56
0.75,57,41
0,63,72
0,37,56
0,61,43
0,64,58
0,49,35
0,63,78
0,56,68
0,37,56
0,68,72
0.75,57,41
0,37,56
0,66,72
0.375,64,58
0,59,43
0,49,35
0,63,78
0,56,68
0,66,72
0,37,56
0.75,57,41
0,63,72
0,37,56
0,61,43
0,64,58
0,49,35
0,63,78
0,56,68
