time,note,velocity
0,40,90
0.003980895833333334,50,88
0.003980895833333334,52,94
0.003980895833333334,55,100
0.003980895833333334,62,95
0,36,87
0.003980895833333334,43,97
0.003980895833333334,48,93
0.003980895833333334,52,96
0.003980895833333334,57,91
0,40,93
0.003980895833333334,43,92
0.003980895833333334,50,95
0.003980895833333334,52,88
0.003980895833333334,59,91
0,38,88
0.003980895833333334,45,99
0.003980895833333334,48,98
0.003980895833333334,52,95
0.003980895833333334,55,89
0,40,88
0.003980895833333334,50,91
0.003980895833333334,52,96
0.003980895833333334,55,88
0.003980895833333334,59,98
0.003980895833333334,62,89
0,36,95
0.003980895833333334,43,94
0.003980895833333334,48,94
0.003980895833333334,52,95
0.003980895833333334,57,96
0,40,98
0.003980895833333334,43,88
0.003980895833333334,50,98
0.003980895833333334,52,97
0.003980895833333334,59,98
0,38,92
0.003980895833333334,45,88
0.003980895833333334,48,100
0.003980895833333334,52,90
0.003980895833333334,55,93
0,57,83
0.21428549999999996,60,80
0.21428549999999996,64,90
0,57,99
0.21428549999999996,60,91
0.21428549999999996,64,78
0,57,95
0,74,79
0.21428549999999996,60,88
0,64,93
0,57,86
0,77,78
0.21428549999999996,60,88
0,76,87
0,52,92
0.21428549999999996,60,79
0.21428549999999996,64,85
0,52,80
0.21428549999999996,60,98
0.21428549999999996,64,96
0,76,79
0,52,92
0.21428549999999996,60,82
0.21428549999999996,64,79
0,52,85
0,77,78
0.21428549999999996,60,94
0,76,79
0,53,97
0,74,78
0.21428549999999996,60,82
0,64,91
0,53,90
0.21428549999999996,60,90
0.21428549999999996,64,92
0,53,93
0,79,79
0.21428549999999996,60,96
0,64,79
0,53,97
0,74,79
0.21428549999999996,60,96
0,76,97
0,50,86
0,72,78
0.21428549999999996,60,79
0,64,100
0,50,83
0.21428549999999996,60,89
0.21428549999999996,64,89
0,72,78
0,50,94
0.21428549999999996,60,90
0.21428549999999996,64,78
0,71,78
0,50,85
0,74,78
0.21428549999999996,60,100
0,72,78
0,48,94
0.005208333333333333,60,96
0.005208333333333333,63,97
0.005208333333333333,67,99
0.005208333333333333,70,100
0.9791666666666666,75,100
0,67,99
0.005208333333333333,72,100
0,43,94
0.005208333333333333,55,96
0.005208333333333333,58,97
0.005208333333333333,62,99
0.005208333333333333,65,100
0.9791666666666666,79,100
0,77,100
0,44,93
0.005208333333333333,56,94
0.005208333333333333,60,96
0.005208333333333333,63,97
0.005208333333333333,67,99
0.005208333333333333,75,100
1.0,65,100
0,41,94
0.005208333333333333,53,96
0.005208333333333333,56,97
0.005208333333333333,60,99
0.005208333333333333,63,100
0,63,100
0,62,97
0.026041666666666664,63,100
0,60,100
0,59,89
0.031249968749999996,66,90
0.031249968749999996,71,92
0.031249968749999996,74,93
0.031249968749999996,78,95
0.026785687499999995,81,96
0,57,89
0.031249968749999996,64,90
0.031249968749999996,69,92
0.031249968749999996,73,93
0.031249968749999996,76,95
0.026785687499999995,80,96
0,61,89
0.031249968749999996,68,90
0.031249968749999996,73,92
0.031249968749999996,76,93
0.031249968749999996,80,95
0.026785687499999995,83,96
0,62,89
0.031249968749999996,69,90
0.031249968749999996,74,92
0.031249968749999996,78,93
0.031249968749999996,81,95
0.026785687499999995,85,96
0,59,89
0.031249968749999996,66,90
0.031249968749999996,71,92
0.031249968749999996,74,93
0.031249968749999996,78,95
0.026785687499999995,81,96
0,57,89
0.031249968749999996,64,90
0.031249968749999996,69,92
0.031249968749999996,73,93
0.031249968749999996,76,95
0.026785687499999995,80,96
0,54,89
0.031249968749999996,61,90
0.031249968749999996,66,92
0.031249968749999996,69,93
0.031249968749999996,73,95
0.026785687499999995,76,96
0,52,95
0,59,89
0.031249968749999996,66,90
0.031249968749999996,71,92
0.031249968749999996,74,93
0.031249968749999996,78,95
0,52,96
0,47,96
0,55,98
0,62,100
1.153846,69,98
0.576923,59,95
0.14423075,60,99
0,47,97
0,51,98
0,42,97
0,57,97
0,71,97
0,47,98
0,51,95
0,42,97
0,57,96
0,72,99
0.2884615,59,99
0,72,98
0,74,96
0.2884615,60,95
0,59,97
0,43,99
0,52,95
0,48,99
1.153846,76,96
0.576923,59,98
0.14423075,57,98
0,45,98
0,48,98
0,40,98
0,55,99
0,74,95
0.43269225,72,99
0,57,99
0,42,99
0,51,97
0,47,95
0,71,100
0.2884615,59,96
0,72,97
0,71,97
0.2884615,60,99
0,52,98
0,47,95
0,55,97
0,62,100
1.153846,69,95
0.576923,59,98
0.14423075,60,95
0,47,97
0,51,95
0,42,98
0,57,97
0,71,96
0,47,95
0,51,95
0,42,97
0,57,99
0,72,97
0.2884615,59,99
0,72,97
0,71,97
0.2884615,60,99
0,59,97
0,43,99
0,52,98
0,48,97
1.153846,67,98
0.576923,59,98
0.14423075,57,96
0,45,96
0,48,96
0,40,98
0,55,95
0,74,98
0.43269225,72,96
0,57,99
0,42,100
0,51,95
0,47,99
0,71,98
0.2884615,59,99
0,72,98
0,71,100
0.2884615,60,96
0,42,93
0.013392843749999998,54,94
0.013392843749999998,56,96
0.008928562499999999,58,97
0.013392843749999998,61,99
0.013392843749999998,65,100
0.7946420624999999,70,100
0,37,94
0.013392843749999998,49,96
0.013392843749999998,56,97
0.008928562499999999,59,99
0.013392843749999998,64,100
0,71,100
0.4285709999999999,70,100
0,39,94
0.013392843749999998,51,96
0.013392843749999998,58,97
0.008928562499999999,61,99
0.013392843749999998,66,100
0,35,94
0.013392843749999998,54,96
0.013392843749999998,58,97
0.008928562499999999,59,99
0.013392843749999998,63,100
0.80803490625,68,100
0,66,100
0,42,93
0.013392843749999998,54,94
0.013392843749999998,56,96
0.008928562499999999,58,97
0.013392843749999998,61,99
0.013392843749999998,65,100
0.7946420624999999,70,100
0,37,94
0.013392843749999998,49,96
0.013392843749999998,56,97
0.008928562499999999,59,99
0.013392843749999998,64,100
0,71,100
0.4285709999999999,70,100
0,39,94
0.013392843749999998,51,96
0.013392843749999998,58,97
0.008928562499999999,61,99
0.013392843749999998,66,100
0,35,94
0.013392843749999998,54,96
0.013392843749999998,58,97
0.008928562499999999,59,99
0.013392843749999998,63,100
0.80803490625,68,100
0,66,100
0,45,87
0.0078125,52,81
0.00390625,64,84
0,60,99
0,45,92
0.0078125,52,79
0.00390625,64,92
0,60,88
0,60,93
0,59,87
0,41,90
0.0078125,48,87
0.00390625,57,88
0,45,79
0.0078125,52,85
0.00390625,64,81
0,60,98
0,45,80
0.0078125,52,92
0.00390625,64,96
0,60,81
0,60,86
0,59,94
0,41,80
0.0078125,48,80
0.00390625,57,97
0,45,88
0.0078125,52,88
0.00390625,64,90
0.0078125,76,90
0,72,93
0,45,92
0.0078125,52,95
0.00390625,64,95
0.0078125,76,80
0,72,98
0,72,87
0,71,80
0,41,87
0.0078125,48,87
0,60,99
0.00390625,69,84
0,45,76
0.0078125,52,88
0.00390625,64,89
0.0078125,76,95
0,72,86
0,45,76
0.0078125,52,90
0.00390625,64,99
0.0078125,76,81
0,72,89
0,72,80
0,71,91
0,41,78
0.0078125,48,80
0,60,87
0.00390625,69,85
0,57,94
0,42,94
0,50,94
0,69,94
0,42,94
0,50,94
0,62,94
0,61,94
0,52,94
0,44,94
0.794702,74,94
0,61,94
0,52,94
0,44,94
0.1986755,76,94
0,44,94
0,49,94
0,56,94
0,50,94
0,42,94
0,57,94
0,50,94
0,42,94
0,69,94
0,62,94
0,61,94
0,52,94
0,44,94
0.794702,74,94
0,44,94
0,52,94
0,61,94
0.1986755,76,94
0,44,94
0,49,94
0,56,94
0,57,94
0,42,94
0,50,94
0,69,94
0,42,94
0,50,94
0,62,94
0,61,94
0,52,94
0,44,94
0,61,94
0,52,94
0,44,94
0,44,94
0,49,94
0,56,94
0,50,94
0,42,94
0,57,94
0,50,94
0,42,94
0,69,94
0,62,94
0,61,94
0,52,94
0,44,94
0,44,94
0,52,94
0,61,94
0,44,94
0,49,94
0,56,94
0,53,83
0.011160708333333333,60,73
0.005580354166666667,65,96
0.011160708333333333,68,87
0.005580354166666667,75,79
1.037945875,73,74
0.535714,72,94
0,48,79
0.011160708333333333,55,87
0.005580354166666667,60,82
0.011160708333333333,64,82
0.005580354166666667,70,85
1.037945875,68,91
0.535714,72,75
0,46,77
0.011160708333333333,53,93
0.005580354166666667,58,74
0.011160708333333333,61,94
0.005580354166666667,68,91
1.573659875,72,78
0,46,70
0.011160708333333333,53,72
0.005580354166666667,58,79
0.011160708333333333,61,91
0.005580354166666667,68,97
1.573659875,72,78
0,53,83
0.011160708333333333,60,73
0.005580354166666667,65,96
0.011160708333333333,68,87
0.005580354166666667,75,79
1.573659875,72,94
0,48,79
0.011160708333333333,55,87
0.005580354166666667,60,82
0.011160708333333333,64,82
0.005580354166666667,70,85
1.573659875,72,75
0,46,77
0.011160708333333333,53,93
0.005580354166666667,58,74
0.011160708333333333,61,94
0.005580354166666667,68,91
1.573659875,72,78
0,46,70
0.011160708333333333,53,72
0.005580354166666667,58,79
0.011160708333333333,61,91
0.005580354166666667,68,97
1.573659875,72,78
0,52,95
0.012499999999999999,68,96
0.012499999999999999,75,98
0.012499999999999999,83,99
0,52,95
0.012499999999999999,68,96
0.012499999999999999,71,98
0.012499999999999999,75,99
0,52,95
0.012499999999999999,71,96
0.012499999999999999,75,98
0.012499999999999999,80,99
0,52,95
0.012499999999999999,68,96
0.012499999999999999,71,98
0.012499999999999999,75,99
0,49,95
0.012499999999999999,68,96
0.012499999999999999,69,98
0.012499999999999999,76,99
0,45,95
0.012499999999999999,61,96
0.012499999999999999,64,98
0.012499999999999999,68,99
0,45,95
0.012499999999999999,64,96
0.012499999999999999,68,98
0.012499999999999999,73,99
0,45,95
0.012499999999999999,61,96
0.012499999999999999,68,98
0.012499999999999999,76,99
0,52,95
0.012499999999999999,68,96
0.012499999999999999,71,98
0.012499999999999999,87,99
0,52,95
0.012499999999999999,68,96
0.012499999999999999,71,98
0.012499999999999999,75,99
0,52,95
0.012499999999999999,71,96
0.012499999999999999,75,98
0.012499999999999999,80,99
0,52,95
0.012499999999999999,68,96
0.012499999999999999,71,98
0.012499999999999999,75,99
0,49,95
0.012499999999999999,68,96
0.012499999999999999,69,98
0.012499999999999999,76,99
0,45,95
0.012499999999999999,61,96
0.012499999999999999,64,98
0.012499999999999999,68,99
0,45,95
0.012499999999999999,64,96
0.012499999999999999,68,98
0.012499999999999999,73,99
0,45,95
0.012499999999999999,61,96
0.012499999999999999,68,98
0.012499999999999999,76,99
0,52,95
0.012499999999999999,68,96
0.012499999999999999,75,98
0.012499999999999999,83,99
0,52,95
0.012499999999999999,68,96
0.012499999999999999,71,98
0.012499999999999999,75,99
0,52,95
0.012499999999999999,71,96
0.012499999999999999,75,98
0.012499999999999999,80,99
0,52,95
0.012499999999999999,68,96
0.012499999999999999,71,98
0.012499999999999999,75,99
0,49,95
0.012499999999999999,68,96
0.012499999999999999,69,98
0.012499999999999999,76,99
0,45,95
0.012499999999999999,61,96
0.012499999999999999,64,98
0.012499999999999999,68,99
0,45,95
0.012499999999999999,64,96
0.012499999999999999,68,98
0.012499999999999999,73,99
0,45,95
0.012499999999999999,61,96
0.012499999999999999,68,98
0.012499999999999999,76,99
0,52,95
0.012499999999999999,68,96
0.012499999999999999,71,98
0.012499999999999999,87,99
0,52,95
0.012499999999999999,68,96
0.012499999999999999,71,98
0.012499999999999999,75,99
0,52,95
0.012499999999999999,71,96
0.012499999999999999,75,98
0.012499999999999999,80,99
0,52,95
0.012499999999999999,68,96
0.012499999999999999,71,98
0.012499999999999999,75,99
0,49,95
0.012499999999999999,68,96
0.012499999999999999,69,98
0.012499999999999999,76,99
0,45,95
0.012499999999999999,61,96
0.012499999999999999,64,98
0.012499999999999999,68,99
0,45,95
0.012499999999999999,64,96
0.012499999999999999,68,98
0.012499999999999999,73,99
0,45,95
0.012499999999999999,61,96
0.012499999999999999,68,98
0.012499999999999999,76,99
0,78,101
0,28,96
0.0037650624999999997,59,99
0.0037650624999999997,40,96
0.015060249999999999,68,101
0.0263554375,80,99
0.0075301249999999995,49,96
0.2221386875,75,101
0,33,96
0,73,101
0.0037650624999999997,64,99
0.0037650624999999997,45,96
0.0263554375,78,99
0.0075301249999999995,54,96
1.3893080624999998,73,101
0,32,96
0.0037650624999999997,63,99
0.0037650624999999997,78,101
0,44,96
0.0188253125,71,101
0.022590375,80,99
0,52,96
0.30497006249999997,75,101
0,70,101
0,30,96
0.0037650624999999997,61,99
0.0037650624999999997,42,96
0.022590375,75,99
0.0075301249999999995,51,96
1.3893080624999998,73,99
0,53,93
0.0078125,58,95
0.0078125,62,96
0.00390625,67,98
0.0078125,81,99
0,52,96
0.0078125,57,98
0.0078125,60,99
0,50,95
0.0078125,55,96
0.0078125,58,98
0.00390625,79,99
0,48,93
0.0078125,53,95
0.0078125,57,96
0.00390625,65,98
0.0078125,74,99
0,53,93
0.0078125,58,95
0.0078125,62,96
0.00390625,67,98
0.0078125,69,99
0,52,96
0.0078125,57,98
0.0078125,60,99
0,50,95
0.0078125,55,96
0.0078125,58,98
0.00390625,67,99
0,48,93
0.0078125,53,95
0.0078125,57,96
0.00390625,74,98
0.0078125,65,99
0,50,99
0.0037650624999999997,77,100
0.35768093749999996,65,100
0,74,100
0,58,99
0.0037650624999999997,72,100
0.7191269374999999,60,100
0,69,100
0,46,99
0.0037650624999999997,81,100
0.35768093749999996,65,100
0,74,100
0,58,99
0.0037650624999999997,72,100
0,60,100
0,69,100
0,50,99
0.0037650624999999997,79,100
0.35768093749999996,65,100
0,74,100
0,58,99
0.0037650624999999997,72,100
0,60,100
0,69,100
0,46,99
0.0037650624999999997,77,100
0.35768093749999996,65,100
0.180723,76,100
0,74,100
0,57,99
0.0037650624999999997,72,100
0,60,99
0.0037650624999999997,70,99
0,72,100
0,69,100
0,83,82
0,73,80
0,69,88
0,66,96
0,62,89
0,59,78
0,47,93
0,69,86
0,66,91
0,62,85
0,59,86
0,47,86
0,81,90
0,66,79
0,62,84
0,59,80
0,47,95
0,76,93
0,67,90
0,62,81
0,59,79
0,55,84
0,43,91
0,78,79
0,66,95
0,59,81
0,62,89
0,55,88
0,43,89
0,81,90
0,71,91
0,67,94
0,64,79
0,61,95
0,57,93
0,45,95
0,67,85
0,64,79
0,61,97
0,57,82
0,45,87
0,79,87
0,64,92
0,61,88
0,57,78
0,45,84
0,86,97
0,66,79
0,61,91
0,57,78
0,54,87
0,42,78
0,85,88
0,64,86
0,54,83
0,57,79
0,61,79
0,42,86
0,83,93
0,73,87
0,69,94
0,66,86
0,62,84
0,59,92
0,47,87
0,69,92
0,66,91
0,62,84
0,59,88
0,47,89
0,81,81
0,66,82
0,62,81
0,59,90
0,47,79
0,76,91
0,67,83
0,62,92
0,59,97
0,55,79
0,43,95
0,78,90
0,66,94
0,59,91
0,62,97
0,55,82
0,43,92
0,81,85
0,71,92
0,67,84
0,64,87
0,61,92
0,57,81
0,45,94
0,67,78
0,64,92
0,61,84
0,57,94
0,45,91
0,79,93
0,64,82
0,61,79
0,57,96
0,45,82
0,74,87
0,66,95
0,61,79
0,57,84
0,54,93
0,42,94
0,73,90
0,64,85
0,54,93
0,57,82
0,61,93
0,42,85
0,48,95
0,60,95
0.0119426875,67,96
0.015923583333333335,70,98
0.0119426875,75,99
0,43,95
0,55,95
0.0119426875,62,96
0.015923583333333335,65,98
0.0119426875,70,99
0,70,99
0,44,95
0,56,95
0.0119426875,63,96
0.015923583333333335,67,98
0.0119426875,72,99
0,39,95
0,51,95
0.0119426875,58,96
0.015923583333333335,62,98
0.0119426875,67,99
0,65,99
0,49,89
0,61,87
0,64,94
0,69,99
0,60,94
0,61,86
0,64,97
0,57,92
0,60,95
0,44,91
0,61,92
0,64,92
0,69,95
0,60,87
0,61,91
0,64,88
0,57,99
0,60,97
0,42,95
0,61,88
0,64,87
0,69,90
0,60,96
0,61,87
0,64,98
0,57,88
0,60,94
0,45,93
0,61,94
0,64,95
0,69,95
0,60,98
0,48,87
0,61,98
0,64,97
0,57,98
0,60,91
0,49,87
0,61,100
0,64,89
0,69,93
0,68,93
0,60,96
0,61,94
0,64,86
0,69,91
0,57,100
0,60,87
0,44,95
0,61,86
0,64,93
0,69,86
0,68,94
0,60,92
0,61,89
0,64,87
0,66,87
0,57,92
0,60,97
0,42,93
0,61,98
0,64,92
0,69,91
0,68,97
0,60,93
0,61,96
0,64,96
0,69,90
0,57,94
0,60,94
0,45,88
0,61,89
0,64,88
0,69,95
0,68,86
0,60,96
0,48,90
0,61,96
0,64,100
0,66,86
0,57,98
0,64,100
0,60,95
0,48,96
0.0054347812499999995,57,99
0,53,97
0.0054347812499999995,64,100
0,52,96
0.0054347812499999995,57,97
0,60,99
0.0054347812499999995,67,100
0,64,100
0,47,96
0.0054347812499999995,52,97
0,55,99
0.0054347812499999995,62,100
0,47,96
0.0054347812499999995,52,97
0,55,99
0.0054347812499999995,62,100
1.0326084375,60,100
0,48,96
0.0054347812499999995,57,99
0,53,97
0.0054347812499999995,64,100
0,52,96
0.0054347812499999995,57,97
0,60,99
0.0054347812499999995,67,100
0,64,100
0,47,96
0.0054347812499999995,52,97
0,55,99
0.0054347812499999995,62,100
0,47,96
0.0054347812499999995,52,97
0,55,99
0.0054347812499999995,62,100
1.0326084375,60,100
0,42,93
0,54,93
0.012499999999999999,57,95
0.012499999999999999,61,96
0.012499999999999999,64,98
0.012499999999999999,68,99
0,54,95
0,42,99
0.012499999999999999,57,96
0.012499999999999999,61,98
0.012499999999999999,64,99
0,54,93
0,30,99
0.012499999999999999,57,95
0.012499999999999999,61,96
0.012499999999999999,64,98
0.012499999999999999,68,99
0,54,95
0,30,99
0.012499999999999999,57,96
0.012499999999999999,61,98
0.012499999999999999,64,99
0.3,68,99
0,69,99
0,45,93
0,57,93
0.012499999999999999,61,95
0.012499999999999999,64,96
0.012499999999999999,68,98
0.012499999999999999,71,99
0,45,93
0,57,93
0.012499999999999999,61,95
0.012499999999999999,64,96
0.012499999999999999,68,98
0.012499999999999999,73,99
0,50,93
0,62,93
0.012499999999999999,66,95
0.012499999999999999,69,96
0.012499999999999999,73,98
0.012499999999999999,76,99
0,50,95
0,62,95
0.012499999999999999,66,96
0.012499999999999999,69,98
0.012499999999999999,73,99
0,59,92
0,35,92
0.012499999999999999,62,93
0.012499999999999999,66,95
0.012499999999999999,69,96
0.012499999999999999,73,98
0.012499999999999999,76,99
0,35,95
0,59,95
0.012499999999999999,62,96
0.012499999999999999,66,98
0.012499999999999999,69,99
0,68,99
0,69,99
0,45,93
0,57,93
0.012499999999999999,61,95
0.012499999999999999,64,96
0.012499999999999999,68,98
0.012499999999999999,73,99
0,45,93
0,57,93
0.012499999999999999,61,95
0.012499999999999999,64,96
0.012499999999999999,68,98
0.012499999999999999,71,99
0,51,88
0,63,77
0,66,79
0.37037,61,99
0.46296249999999994,59,89
0,61,74
0.185185,51,94
0.185185,59,85
0.37037,58,91
0.37037,54,85
0,63,85
0,66,83
0.37037,61,91
0.46296249999999994,59,75
0,61,83
0.185185,54,77
0.185185,59,97
0.37037,58,95
0.37037,59,91
0,63,78
0,47,76
0.37037,61,82
0.46296249999999994,59,92
0,61,76
0.185185,47,97
0.9259249999999999,58,78
0.185185,59,89
0,63,88
0,49,89
0.37037,61,90
0.46296249999999994,59,91
0,61,95
0.185185,49,75
0.9259249999999999,58,97
0,41,90
0.0037650624999999997,53,92
0.0037650624999999997,57,95
0.0037650624999999997,60,99
0.0075301249999999995,64,98
0,41,91
0.0037650624999999997,53,94
0.0037650624999999997,57,94
0.0037650624999999997,60,98
0.0075301249999999995,64,95
0,41,91
0.0037650624999999997,53,94
0.0037650624999999997,57,92
0.0037650624999999997,60,96
0.0075301249999999995,64,97
0,41,95
0.0037650624999999997,53,95
0.0037650624999999997,57,98
0.0037650624999999997,60,96
0.0338855625,64,92
0,41,90
0.0037650624999999997,53,91
0.0037650624999999997,57,94
0.0037650624999999997,60,98
0.0075301249999999995,64,95
0,38,92
0.0075301249999999995,50,94
0.0037650624999999997,53,95
0.0075301249999999995,57,97
0.0037650624999999997,60,98
0,36,92
0.0037650624999999997,48,95
0.0037650624999999997,52,92
0.0037650624999999997,55,98
0.0075301249999999995,59,99
0,36,91
0.0037650624999999997,48,91
0.0037650624999999997,52,97
0.0037650624999999997,55,95
0.0075301249999999995,59,99
0,36,91
0.0037650624999999997,48,95
0.0037650624999999997,52,95
0.0037650624999999997,55,96
0.0075301249999999995,59,95
0,36,96
0.0037650624999999997,48,92
0.0037650624999999997,52,96
0.0037650624999999997,55,98
0.0564759375,59,92
0,36,89
0.0037650624999999997,48,93
0.0037650624999999997,52,92
0.0037650624999999997,55,97
0.0075301249999999995,59,97
0,40,93
0.0037650624999999997,52,92
0.0037650624999999997,55,92
0.0037650624999999997,59,94
0.0075301249999999995,62,97
0,41,90
0.0037650624999999997,53,92
0.0037650624999999997,57,95
0.0037650624999999997,60,99
0.0075301249999999995,64,98
0,41,91
0.0037650624999999997,53,94
0.0037650624999999997,57,94
0.0037650624999999997,60,98
0.0075301249999999995,64,95
0,41,91
0.0037650624999999997,53,94
0.0037650624999999997,57,92
0.0037650624999999997,60,96
0.0075301249999999995,64,97
0,41,95
0.0037650624999999997,53,95
0.0037650624999999997,57,98
0.0037650624999999997,60,96
0.0338855625,64,92
0,41,90
0.0037650624999999997,53,91
0.0037650624999999997,57,94
0.0037650624999999997,60,98
0.0075301249999999995,64,95
0,38,92
0.0075301249999999995,50,94
0.0037650624999999997,53,95
0.0075301249999999995,57,97
0.0037650624999999997,60,98
0,36,92
0.0037650624999999997,48,95
0.0037650624999999997,52,92
0.0037650624999999997,55,98
0.0075301249999999995,59,99
0,36,91
0.0037650624999999997,48,91
0.0037650624999999997,52,97
0.0037650624999999997,55,95
0.0075301249999999995,59,99
0,36,91
0.0037650624999999997,48,95
0.0037650624999999997,52,95
0.0037650624999999997,55,96
0.0075301249999999995,59,95
0,36,96
0.0037650624999999997,48,92
0.0037650624999999997,52,96
0.0037650624999999997,55,98
0.0564759375,59,92
0,36,89
0,62,87
0.0037650624999999997,48,93
0.0037650624999999997,52,92
0.0037650624999999997,55,97
0.0075301249999999995,59,97
0,40,93
0.0037650624999999997,52,92
0.0037650624999999997,55,92
0.0037650624999999997,59,94
0.0075301249999999995,62,85
0.030120499999999998,67,86
0,56,89
0,59,87
0,71,94
0,49,99
0,68,94
0,64,86
0,59,97
0,56,92
0,68,95
0,49,91
0,76,92
0,59,92
0,56,95
0,78,87
0,49,91
0,76,88
0,66,99
0,56,97
0,75,95
0,71,88
0,56,87
0,63,90
0,71,96
0,83,87
0,59,98
0,56,88
0,71,94
0,44,93
0,68,94
0,64,95
0,59,95
0,56,98
0,68,87
0,44,98
0,76,97
0,59,98
0,56,91
0,78,87
0,44,100
0,76,89
0,56,93
0,66,93
0,47,96
0,75,94
0,71,86
0,56,91
0,47,100
0,63,87
0,71,95
0,80,86
0,56,89
0,59,87
0,71,94
0,49,99
0,68,94
0,64,86
0,59,97
0,56,92
0,68,95
0,49,91
0,64,92
0,59,92
0,56,95
0,66,87
0,49,91
0,64,88
0,66,99
0,56,97
0,75,95
0,71,88
0,56,87
0,63,90
0,71,96
0.25,59,98
0,56,88
0,71,94
0,44,93
0,68,94
0,64,95
0,59,95
0,56,98
0,68,87
0,44,98
0,64,97
0,59,98
0,56,91
0,66,87
0,44,100
0,64,89
0,56,93
0,66,93
0,47,96
0,75,94
0,71,86
0,56,91
0,47,100
0,63,87
0,71,95
0,39,88
0.0072674375000000005,51,90
0.0072674375000000005,63,96
0,61,84
0.0072674375000000005,66,91
0,58,100
0,59,91
0,70,94
0,71,94
0,35,87
0.0072674375000000005,47,90
0.0072674375000000005,58,94
0,66,91
0,58,89
0,59,93
0,70,100
0,71,90
0,37,88
0.0072674375000000005,49,91
0.0072674375000000005,59,86
0,65,91
0,58,94
0,59,89
0,73,95
0,71,94
0,35,84
0.0072674375000000005,47,87
0.0072674375000000005,63,91
0,61,87
0,58,87
0.0072674375000000005,58,94
0,59,98
0.697674,70,98
0,71,94
0,75,98
0,39,88
0.0072674375000000005,51,90
0.0072674375000000005,54,86
0,61,86
0.0072674375000000005,63,99
0,58,100
0,59,91
0,58,94
0,59,94
0,35,87
0.0072674375000000005,47,90
0.0072674375000000005,58,97
0,54,88
0,58,89
0,59,93
0,58,100
0,59,90
0,37,88
0.0072674375000000005,49,91
0.0072674375000000005,59,89
0,53,88
0,58,94
0,59,89
0,61,95
0,59,94
0,35,84
0.0072674375000000005,47,87
0.0072674375000000005,51,88
0,61,90
0,58,87
0.0072674375000000005,58,94
0,59,98
0.697674,58,98
0,59,94
0,63,98
0,45,100
0.00390625,57,98
0.00390625,60,97
0.00390625,64,95
0.00390625,67,93
0.00390625,71,92
0.35546875,79,100
0.5625,76,100
0,74,100
0,40,100
0.00390625,52,98
0.00390625,55,97
0.00390625,59,95
0.00390625,62,93
0.00390625,66,92
0.00390625,76,90
0,67,100
0,41,100
0.00390625,53,98
0.00390625,57,97
0.00390625,60,95
0.00390625,64,93
0.00390625,67,92
0.35546875,79,100
0.5625,76,100
0,74,100
0,38,100
0.00390625,50,98
0.00390625,53,97
0.00390625,57,95
0.00390625,60,93
0.00390625,64,92
0.00390625,71,90
0,69,100
0.375,67,100
0,45,100
0.00390625,57,98
0.00390625,60,97
0.00390625,64,95
0.00390625,67,93
0.00390625,71,92
0.35546875,79,100
0,40,100
0.00390625,52,98
0.00390625,55,97
0.00390625,59,95
0.00390625,62,93
0.00390625,66,92
0.00390625,76,90
0,67,100
0,41,100
0.00390625,53,98
0.00390625,57,97
0.00390625,60,95
0.00390625,64,93
0.00390625,67,92
0.35546875,79,100
0,38,100
0.00390625,50,98
0.00390625,53,97
0.00390625,57,95
0.00390625,60,93
0.00390625,64,92
0.00390625,71,90
0,69,100
0,43,100
0,65,100
0.25,50,100
0,55,100
0,58,100
0.75,62,100
0,55,100
0,46,100
0,42,100
0,63,100
0.25,48,100
0,54,100
0,57,100
0.75,60,100
0,45,100
0,54,100
0,38,100
0,60,100
0.25,45,100
0,54,100
0,50,100
0,57,100
0,50,100
0,54,100
0,60,100
0,38,100
0.25,45,100
0,50,100
0,54,100
0,57,100
0,50,100
0,54,100
0,43,100
0,65,100
0,55,100
0,58,100
0.75,62,100
0,55,100
0,46,100
0,42,100
0,63,100
0,54,100
0,57,100
0.75,60,100
0,45,100
0,54,100
0,38,100
0,60,100
0,54,100
0,50,100
0,57,100
0,50,100
0,54,100
0,60,100
0,38,100
0,50,100
0,54,100
0,57,100
0,50,100
0,54,100
0,37,94
0.0063131354166666665,53,97
0,49,95
0.0063131354166666665,56,92
0,60,87
0.8964652291666666,65,101
0.15151525,77,70
0.15151525,66,101
0.0063131354166666665,77,66
0.15151525,77,82
0,41,95
0.0063131354166666665,56,95
0,53,91
0.0063131354166666665,63,91
0,60,91
0.0063131354166666665,82,99
0,80,84
0,34,96
0.0063131354166666665,49,90
0,58,93
0.0063131354166666665,56,89
0,53,92
0.0063131354166666665,63,93
0.0063131354166666665,78,62
0,58,96
0.0063131354166666665,61,99
0,77,92
0,37,94
0.0063131354166666665,53,94
0,49,92
0.0063131354166666665,56,94
0,60,92
0.8964652291666666,65,101
0.45454574999999997,66,101
0,41,99
0.0063131354166666665,56,92
0,53,91
0.0063131354166666665,63,86
0,60,93
0,34,94
0.0063131354166666665,49,94
0,58,95
0.0063131354166666665,53,92
0,56,90
0,36,108
0,55,108
0,60,108
0,63,108
0.2777775,72,108
0,79,108
0,75,108
0,74,108
0,72,108
0,74,108
0,72,108
0,75,108
0,63,108
0,60,108
0,55,108
0,36,108
0.6481475,74,108
0,72,108
0,36,108
0,55,108
0,60,108
0,63,108
0.2777775,72,108
0,79,108
0,75,108
0,74,108
0,72,108
0,74,108
0,72,108
0,75,108
0,60,108
0,63,108
0,55,108
0,36,108
0.6481475,74,108
0,72,108
0,43,108
0,55,108
0,58,108
0,50,108
0.2777775,67,108
0,74,108
0,70,108
0,69,108
0,67,108
0,69,108
0,67,108
0,70,108
0,43,108
0,55,108
0,58,108
0,50,108
0.6481475,69,108
0,67,108
0,43,108
0,55,108
0,58,108
0,50,108
0.2777775,67,108
0,74,108
0,70,108
0,69,108
0,67,108
0,69,108
0,67,108
0,70,108
0,43,108
0,55,108
0,58,108
0,50,108
0.6481475,69,108
0,67,108
0,54,89
0,73,88
0.75,61,86
0.0390625,64,94
0.7109375,59,98
0.02734375,61,94
0.7109375,69,86
0.375,57,97
0,71,88
0,50,92
0.73828125,61,94
0.0390625,64,91
0.7109375,59,91
0.02734375,61,92
0.7109375,69,95
0.375,57,87
0,47,91
0,68,88
0.73828125,61,87
0.0390625,64,99
0.7109375,59,96
0.02734375,61,95
0.7109375,66,88
0.375,57,87
0,69,88
0,50,90
0.71875,61,95
0.0390625,64,87
0,59,97
0.0390625,61,88
0.7109375,71,94
0.375,69,93
0,54,89
0.75,61,86
0.0390625,64,94
0.7109375,59,98
0.02734375,61,94
1.0859375,57,97
0,50,92
0.73828125,61,94
0.0390625,64,91
0.7109375,59,91
0.02734375,61,92
1.0859375,57,87
0,47,91
0.73828125,61,87
0.0390625,64,99
0.7109375,59,96
0.02734375,61,95
1.0859375,57,87
0,50,90
0.71875,61,95
0.0390625,64,87
0,74,88
0,59,97
0.0390625,61,88
0.3359375,73,88
0.375,71,88
0.375,69,88
0,45,85
0,60,97
0,52,86
0.005952385416666667,71,81
0,67,78
0,71,81
0,48,82
0,57,85
0,41,82
0.005952385416666667,67,95
0,64,91
0,45,79
0,53,76
0,38,92
0.005952385416666667,71,86
0,64,90
0,60,76
0.2857145,71,95
0.2857145,74,92
0,59,79
0,52,75
0,48,88
0,45,78
0.005952385416666667,71,78
0,55,95
0,59,79
0.8511911145833333,71,90
0,41,87
0,48,88
0,45,86
0.005952385416666667,52,90
0,55,96
0,38,91
0,41,90
0,45,94
0.005952385416666667,52,76
0,48,83
0,71,77
0.2857145,69,100
0.2857145,59,81
0,67,88
0,52,86
0,60,97
0,45,85
0.005952385416666667,71,81
0,67,78
0.8511911145833333,71,77
0,48,82
0,57,85
0,41,82
0.005952385416666667,67,95
0,64,91
0,45,79
0,53,76
0,38,92
0.005952385416666667,71,86
0,64,90
0,60,76
0.2857145,71,95
0.2857145,74,92
0,59,79
0,52,75
0,48,88
0,45,78
0.005952385416666667,71,78
0,55,95
0,59,79
0.8511911145833333,71,90
0,41,87
0,48,88
0,45,86
0.005952385416666667,52,90
0,55,96
0,45,94
0,41,90
0,38,91
0.005952385416666667,71,77
0,48,83
0,52,76
0.2857145,69,100
0.2857145,59,81
0,67,88
0,47,98
0,62,98
0,54,98
0,69,98
0,54,98
0,62,98
0,47,98
0.37037,69,98
0,47,98
0,54,98
0,74,98
0,47,98
0,66,98
0,62,98
0,73,98
0,47,98
0,62,98
0,47,98
0,71,98
0,64,98
0,49,98
0,58,98
0,42,98
0,42,98
0,58,98
0,49,98
0.37037,64,98
0,70,98
0,42,98
0,42,98
0,58,98
0,61,98
0,71,98
0,42,98
0,42,98
0,58,98
0,43,98
0,59,98
0,50,98
0,66,98
0,43,98
0,59,98
0,50,98
0.37037,66,98
0,71,98
0,43,98
0,62,98
0,59,98
0,43,98
0,69,98
0,43,98
0,43,98
0,59,98
0,67,98
0,62,98
0,55,98
0,40,98
0,47,98
0,40,98
0,55,98
0,47,98
0.37037,62,98
0,66,98
0,40,98
0,40,98
0,55,98
0,59,98
0,67,98
0,40,98
0,40,98
0,55,98
0,47,98
0,62,98
0,54,98
0,69,98
0,54,98
0,62,98
0,47,98
0.37037,69,98
0,47,98
0,54,98
0,74,98
0,47,98
0,66,98
0,62,98
0,73,98
0,47,98
0,62,98
0,47,98
0,71,98
0,64,98
0,49,98
0,58,98
0,42,98
0,42,98
0,58,98
0,49,98
0.37037,64,98
0,70,98
0,42,98
0,42,98
0,58,98
0,61,98
0,71,98
0,42,98
0,42,98
0,58,98
0,43,98
0,59,98
0,50,98
0,66,98
0,43,98
0,59,98
0,50,98
0.37037,66,98
0,71,98
0,43,98
0,62,98
0,59,98
0,43,98
0,69,98
0,43,98
0,43,98
0,59,98
0,67,98
0,62,98
0,55,98
0,40,98
0,47,98
0,40,98
0,55,98
0,47,98
0.37037,62,98
0,66,98
0,40,98
0,40,98
0,55,98
0,59,98
0,67,98
0,40,98
0,40,98
0,55,98
0,42,88
0.004528989583333333,54,95
0.004528989583333333,57,84
0.004528989583333333,61,93
0.004528989583333333,73,89
0.21739149999999996,69,86
0.4347829999999999,68,97
0,66,92
0,37,89
0.004528989583333333,49,88
0.004528989583333333,53,89
0.004528989583333333,56,90
0.004528989583333333,71,95
0,41,91
0.004528989583333333,53,95
0.004528989583333333,56,88
0.004528989583333333,59,87
0.004528989583333333,68,87
0.21739149999999996,65,95
0,42,81
0.004528989583333333,54,86
0.004528989583333333,57,84
0.004528989583333333,61,95
0.004528989583333333,73,88
0.21739149999999996,69,98
0.4347829999999999,68,88
0,66,94
0,37,92
0.004528989583333333,49,91
0.004528989583333333,53,92
0.004528989583333333,56,93
0.004528989583333333,71,93
0,41,92
0.004528989583333333,53,93
0.004528989583333333,56,88
0.004528989583333333,59,97
0.004528989583333333,68,87
0.21739149999999996,65,87
0,42,89
0.004528989583333333,54,90
0.004528989583333333,57,99
0.004528989583333333,61,89
0,37,87
0.004528989583333333,49,83
0.004528989583333333,53,93
0.004528989583333333,56,96
0,41,82
0.004528989583333333,53,92
0.004528989583333333,56,99
0.004528989583333333,59,87
0,42,89
0.004528989583333333,54,83
0.004528989583333333,57,91
0.004528989583333333,61,94
0,37,88
0.004528989583333333,49,84
0.004528989583333333,53,86
0.004528989583333333,56,89
0,41,93
0.004528989583333333,53,90
0.004528989583333333,56,91
0.004528989583333333,59,98
0,52,94
0.009615375,64,96
0.0144230625,67,97
0.009615375,71,99
0.0144230625,74,100
0,52,94
0.009615375,64,96
0.0144230625,67,97
0.009615375,71,99
0.0144230625,74,100
0,52,94
0.009615375,64,96
0.0144230625,67,97
0.009615375,71,99
0.0144230625,74,100
0,50,94
0.009615375,62,96
0.0144230625,66,97
0.009615375,69,99
0.0144230625,73,100
0,47,94
0.009615375,59,96
0.0144230625,62,97
0.009615375,66,99
0.0144230625,69,100
0,43,94
0.009615375,55,96
0.0144230625,59,97
0.009615375,62,99
0.0144230625,66,100
0,40,94
0.009615375,64,96
0.0144230625,67,97
0.009615375,71,99
0.0144230625,74,100
0,40,94
0.009615375,64,96
0.0144230625,67,97
0.009615375,71,99
0.0144230625,74,100
0,40,94
0.009615375,64,96
0.0144230625,67,97
0.009615375,71,99
0.0144230625,74,100
0,50,94
0.009615375,62,96
0.0144230625,66,97
0.009615375,69,99
0.0144230625,73,100
0,47,94
0.009615375,59,96
0.0144230625,62,97
0.009615375,66,99
0.0144230625,69,100
0,43,94
0.009615375,55,96
0.0144230625,59,97
0.009615375,62,99
0.0144230625,66,100
0.41346112500000004,78,100
0,40,94
0.009615375,64,96
0.0144230625,67,97
0.009615375,71,99
0.0144230625,74,100
0,40,94
0.009615375,64,96
0.0144230625,67,97
0.009615375,71,99
0.0144230625,74,100
0,40,94
0.009615375,64,96
0.0144230625,67,97
0.009615375,71,99
0.0144230625,74,100
0,50,94
0.009615375,62,96
0.0144230625,66,97
0.009615375,69,99
0.0144230625,73,100
0,47,94
0.009615375,59,96
0.0144230625,62,97
0.009615375,66,99
0.0144230625,69,100
0,43,94
0.009615375,55,96
0.0144230625,59,97
0.009615375,62,99
0.0144230625,66,100
0,40,94
0.009615375,64,96
0.0144230625,67,97
0.009615375,71,99
0.0144230625,74,100
0,40,94
0.009615375,64,96
0.0144230625,67,97
0.009615375,71,99
0.0144230625,74,100
0,40,94
0.009615375,64,96
0.0144230625,67,97
0.009615375,71,99
0.0144230625,74,100
0,50,94
0.009615375,62,96
0.0144230625,66,97
0.009615375,69,99
0.0144230625,73,100
0,47,94
0.009615375,59,96
0.0144230625,62,97
0.009615375,66,99
0.0144230625,69,100
0,43,93
0.009615375,55,94
0.0144230625,59,96
0.009615375,62,97
0.0144230625,66,99
0.009615375,76,100
0,74,100
0,42,88
0,66,88
0,57,88
0,61,88
0,45,88
0,66,88
0,47,88
0.2040815,68,88
0.2040815,69,88
0.2040815,71,88
0,73,88
0,54,88
0,62,88
0,45,88
0,64,88
0,54,88
0,62,88
0,73,88
0,59,88
0,56,88
0,37,88
0,47,88
0,54,88
0,62,88
0.408163,45,88
0,54,88
0,74,88
0,73,88
0,42,88
0,61,88
0,57,88
0,66,88
0,57,88
0,47,88
0,66,88
0.2040815,68,88
0.2040815,69,88
0.2040815,71,88
0,62,88
0,54,88
0,73,88
0,74,88
0,45,88
0,64,88
0,76,88
0,54,88
0,62,88
0,74,88
0,73,88
0,37,88
0,59,88
0,56,88
0,47,88
0,62,88
0,54,88
0.408163,45,88
0,74,88
0,54,88
0,73,88
0,40,93
0.011160708333333333,52,94
0.011160708333333333,55,96
0.005580354166666667,57,97
0.011160708333333333,60,99
0.011160708333333333,69,100
0,35,93
0.011160708333333333,52,94
0.011160708333333333,59,96
0.005580354166666667,62,97
0.011160708333333333,64,99
0.011160708333333333,67,100
0,38,93
0.011160708333333333,50,94
0.011160708333333333,54,96
0.005580354166666667,55,97
0.011160708333333333,59,99
0.011160708333333333,66,100
0,40,93
0.011160708333333333,52,94
0.011160708333333333,55,96
0.005580354166666667,57,97
0.011160708333333333,60,99
0.011160708333333333,69,100
0,35,94
0.011160708333333333,59,96
0.011160708333333333,62,97
0.005580354166666667,64,99
0.011160708333333333,67,100
0,38,93
0.011160708333333333,50,94
0.011160708333333333,54,96
0.005580354166666667,55,97
0.011160708333333333,59,99
0.011160708333333333,66,100
0,57,86
0.0044642812499999995,64,86
0.0044642812499999995,48,94
0,59,15
0,52,50
0.008928562499999999,43,76
0,48,77
0,57,65
1.6919625937499998,67,97
0,57,110
0,43,105
0.02125848958333333,59,107
0.004251697916666667,62,111
0.017006791666666667,66,108
0,40,105
0.02125848958333333,55,107
0.02125848958333333,62,108
0.02125848958333333,66,110
0.02125848958333333,71,111
0,38,105
0.02125848958333333,54,107
0.02125848958333333,61,108
0.02125848958333333,64,110
0.02125848958333333,69,111
0,35,105
0.02125848958333333,50,107
0.02125848958333333,57,108
0.02125848958333333,61,110
0.02125848958333333,66,111
0,38,90
0,57,89
0,50,94
0,62,100
0.01704546875,66,95
0.022727291666666666,69,88
0.01704546875,73,97
0.48863677083333334,71,93
0.2727275,69,96
0,81,92
0.01704546875,71,93
0,69,93
0.01704546875,73,95
0.2727275,76,88
0,74,92
0,73,89
0,71,99
0.028409114583333332,73,98
0,69,96
0,33,90
0,52,88
0,45,91
0,57,96
0.01704546875,61,88
0.022727291666666666,64,98
0.01704546875,68,90
0.48863677083333334,66,95
0.2727275,64,94
0,76,95
0.01704546875,66,95
0.2727275,73,96
0,64,98
0.01704546875,68,88
0.2727275,71,98
0,69,98
0,76,99
0,68,92
0,73,88
0,66,100
0.028409114583333332,68,90
0,64,94
0,45,94
0,38,97
0,50,94
0.01704546875,54,88
0.022727291666666666,57,92
0.01704546875,61,100
0.48863677083333334,59,88
0.2727275,57,96
0,69,88
0.01704546875,59,93
0,57,88
0.01704546875,61,94
0.2727275,64,93
0,62,91
0,61,88
0,59,88
0.028409114583333332,61,93
0,57,97
0,40,93
0,33,98
0,45,93
0.01704546875,49,92
0.022727291666666666,52,97
0.01704546875,56,93
0.48863677083333334,54,97
0.2727275,52,96
0,64,91
0.01704546875,54,94
0.2727275,61,95
0,52,89
0.01704546875,56,90
0.2727275,59,90
0,57,95
0,64,88
0,56,96
0,61,91
0,54,96
0.028409114583333332,56,100
0,52,88
0,48,100
0.00390625,55,98
0.00390625,63,97
0.7421875,70,100
0,48,100
0.00390625,55,98
0.00390625,63,97
0.7421875,68,100
0,65,100
0,51,100
0.00390625,65,98
0,67,98
0,41,100
0.00390625,48,98
0.00390625,56,97
0.7421875,63,100
0,41,100
0.00390625,48,98
0.00390625,56,97
0.7421875,65,100
0,60,100
0,62,98
0,46,100
0,48,100
0.00390625,55,98
0.00390625,63,97
0.7421875,70,100
0,48,100
0.00390625,55,98
0.00390625,63,97
0.7421875,68,100
0,65,100
0,51,100
0.00390625,65,98
0,67,98
0,41,100
0.00390625,48,98
0.00390625,56,97
0.7421875,63,100
0,41,100
0.00390625,48,98
0.00390625,56,97
0.7421875,65,100
0,60,100
0,62,98
0,46,100
0,48,100
0.00390625,55,98
0.00390625,63,97
2.2421875,65,100
0,51,100
0.00390625,65,98
0,67,98
0,41,100
0.00390625,48,98
0.00390625,56,97
0.7421875,63,100
1.125,60,100
0,62,98
0,46,100
0,48,100
0.00390625,55,98
0.00390625,63,97
2.2421875,65,100
0,51,100
0.00390625,65,98
0,67,98
0,41,100
0.00390625,48,98
0.00390625,56,97
0.7421875,63,100
1.125,60,100
0,62,98
0,46,100
0,58,70
0.00390625,65,85
0.00390625,69,76
0.28125,62,99
0.65625,67,88
0.28125,60,92
0.00390625,67,70
0.09375,70,83
0.09375,63,90
0.28125,72,80
0.28125,70,83
0.28125,63,79
0.00390625,70,71
0.00390625,74,89
0.28125,67,80
0.65625,72,73
0.28125,63,86
0.00390625,70,93
0.00390625,74,97
0.28125,67,75
0.28125,72,72
0.28125,70,79
0.265625,58,69
0.00390625,65,95
0.00390625,69,91
0.28125,62,75
0.65625,67,87
0.28125,60,86
0.00390625,67,86
0.09375,70,89
0.09375,63,90
0.28125,72,95
0.28125,70,71
0.28125,63,93
0.00390625,70,95
0.00390625,74,94
0.28125,67,81
0.65625,72,71
0.28125,63,82
0.00390625,70,75
0.00390625,74,100
0.28125,67,85
0.28125,72,92
0.28125,70,87
0,52,91
0.025201614583333334,56,90
0.025201614583333334,59,95
0.025201614583333334,63,100
0,52,96
0.025201614583333334,56,89
0.025201614583333334,63,98
0.025201614583333334,71,94
0,52,96
0.025201614583333334,59,93
0.025201614583333334,63,94
0.025201614583333334,68,94
0,56,96
0.025201614583333334,59,90
0.025201614583333334,63,93
0.025201614583333334,64,90
0,52,99
0.025201614583333334,56,98
0.025201614583333334,59,96
0.025201614583333334,63,91
0,52,90
0.025201614583333334,56,92
0.025201614583333334,59,97
0.025201614583333334,63,90
0,52,99
0.025201614583333334,56,91
0.025201614583333334,59,95
0.025201614583333334,63,95
0,52,95
0.025201614583333334,56,96
0.025201614583333334,59,96
0.025201614583333334,75,98
0,47,89
0.025201614583333334,51,99
0.025201614583333334,54,98
0.025201614583333334,58,99
0,47,93
0.025201614583333334,51,89
0.025201614583333334,58,100
0.025201614583333334,66,91
0,47,94
0.025201614583333334,54,94
0.025201614583333334,58,97
0.025201614583333334,63,95
0,51,89
0.025201614583333334,54,93
0.025201614583333334,58,100
0.025201614583333334,59,90
0,47,96
0.025201614583333334,51,89
0.025201614583333334,54,94
0.025201614583333334,58,89
0,47,95
0.025201614583333334,51,94
0.025201614583333334,54,92
0.025201614583333334,58,90
0,47,90
0.025201614583333334,51,94
0.025201614583333334,54,98
0.025201614583333334,58,94
0,47,98
0.025201614583333334,51,94
0.025201614583333334,54,93
0.025201614583333334,70,97
0,46,96
0.01616378125,58,97
0.01616378125,65,99
0.021551708333333332,69,100
0.4633617291666666,65,100
0.517241,62,100
0,41,94
0.01616378125,53,96
0.01616378125,57,97
0.021551708333333332,60,99
0.01616378125,64,100
0.44719794791666667,57,99
0,41,94
0.01616378125,53,96
0.01616378125,57,97
0.021551708333333332,60,99
0.01616378125,64,100
0,45,96
0.01616378125,57,97
0.01616378125,60,99
0.021551708333333332,64,100
0,38,97
0.01616378125,62,99
0.01616378125,65,100
0,46,96
0.01616378125,58,97
0.01616378125,65,99
0.021551708333333332,69,100
0.4633617291666666,65,100
0.517241,62,100
0,41,94
0.01616378125,53,96
0.01616378125,57,97
0.021551708333333332,60,99
0.01616378125,64,100
0.5226289270833333,57,99
0,41,94
0.01616378125,53,96
0.01616378125,57,97
0.021551708333333332,60,99
0.010775854166666666,64,100
0,45,94
0.01616378125,57,96
0.01616378125,60,97
0.021551708333333332,64,99
0,38,97
0.01616378125,62,99
0.01616378125,65,100
0,46,96
0.01616378125,58,97
0.01616378125,65,99
0.021551708333333332,69,100
0.9806027291666666,62,100
0,41,94
0.01616378125,53,96
0.01616378125,57,97
0.021551708333333332,60,99
0.01616378125,64,100
0,41,94
0.01616378125,53,96
0.01616378125,57,97
0.021551708333333332,60,99
0.01616378125,64,100
0,45,96
0.01616378125,57,97
0.01616378125,60,99
0.021551708333333332,64,100
0,38,97
0.01616378125,62,99
0.01616378125,65,100
0,46,96
0.01616378125,58,97
0.01616378125,65,99
0.021551708333333332,69,100
0.9806027291666666,62,100
0,41,94
0.01616378125,53,96
0.01616378125,57,97
0.021551708333333332,60,99
0.01616378125,64,100
0,41,94
0.01616378125,53,96
0.01616378125,57,97
0.021551708333333332,60,99
0.01616378125,64,100
0,45,94
0.01616378125,57,96
0.01616378125,60,97
0.021551708333333332,64,99
0,38,97
0.01616378125,62,99
0.01616378125,65,100
0,43,43
0,69,73
0.555555,50,33
0.185185,62,49
0.37037,65,66
0.05787031249999999,67,35
0.05787031249999999,43,43
0,69,74
0.185185,55,33
0.05787031249999999,60,49
0,67,40
0.05787031249999999,50,43
0,65,68
0.05787031249999999,43,43
0,69,73
0.555555,50,33
0.185185,62,49
0.37037,65,66
0.05787031249999999,67,35
0.05787031249999999,43,43
0,69,74
0.185185,55,33
0.05787031249999999,60,49
0,67,40
0.05787031249999999,50,43
0,65,68
0.05787031249999999,38,43
0,69,73
0.555555,50,33
0.185185,62,49
0.37037,65,66
0.05787031249999999,67,35
0.05787031249999999,38,43
0,69,74
0.185185,55,33
0.05787031249999999,60,49
0,67,40
0.05787031249999999,50,43
0,65,68
0.05787031249999999,39,43
0,69,73
0.555555,50,33
0.185185,62,49
0.37037,65,66
0.05787031249999999,67,35
0.05787031249999999,39,43
0,69,74
0.185185,55,33
0.05787031249999999,60,49
0,67,40
0.05787031249999999,50,43
0,65,68
0,68,76
0,59,58
0,44,58
0.1875,70,77
0,63,58
0.05859375,71,100
0.05859375,63,68
0.05859375,58,68
0.05859375,47,77
0,64,66
0.375,73,57
0.05859375,66,76
0,61,58
0,39,58
0,75,88
0.1875,68,77
0.05859375,70,100
0.05859375,55,68
0.05859375,39,77
0.375,71,57
0.05859375,73,88
0,40,77
0,56,68
0,70,84
0.1875,75,76
0.05859375,73,92
0.375,58,62
0.5625,59,62
0,71,68
0.05859375,40,77
0,56,68
0,73,88
0,70,84
0.1875,75,85
0.05859375,73,101
0.375,58,62
0.05859375,39,77
0,59,62
0,71,68
0.05859375,68,76
0,59,58
0,44,58
0.1875,70,77
0,63,58
0.05859375,71,100
0.05859375,63,68
0.05859375,58,68
0.05859375,47,77
0,64,66
0.375,73,57
0.05859375,66,76
0,61,58
0,39,58
0,75,88
0.1875,68,77
0.05859375,70,100
0.05859375,55,68
0.05859375,39,77
0.375,71,57
0.05859375,73,88
0,40,77
0,56,68
0,70,84
0.1875,75,76
0.05859375,73,92
0.375,58,62
0.5625,59,62
0,71,68
0.05859375,40,77
0,56,68
0,73,88
0,70,84
0.1875,75,85
0.05859375,73,101
0.375,58,62
0.05859375,39,77
0,59,62
0,71,68
0,42,35
0,66,72
0.74074,61,52
0.37037,57,24
0.37037,56,47
0.74074,54,66
0.0925925,54,54
0.0925925,42,35
0,66,72
0.74074,61,52
0.37037,57,24
0.37037,56,47
0.74074,54,66
0.0925925,54,54
0.0925925,30,35
0,66,72
0.74074,61,52
0.37037,57,24
0.37037,56,47
0.74074,54,66
0.0925925,54,54
0.0925925,69,81
0,38,35
0.74074,61,52
0.37037,57,24
0.37037,68,67
0,56,47
0.74074,54,66
0.0925925,54,54
0,53,57
0,41,31
0,67,83
0.2112675,60,31
0.10563375,60,33
0.2112675,63,69
0,55,59
0,60,83
0,58,35
0,58,78
0,55,57
0,37,31
0,58,45
0,53,57
0,41,31
0,67,83
0.2112675,60,31
0.10563375,60,33
0.2112675,63,69
0,55,59
0,60,83
0,58,35
0,58,78
0,55,57
0,37,31
0,58,45
0,53,57
0,41,31
0,67,83
0.2112675,60,31
0.10563375,60,33
0.2112675,63,69
0,55,59
0,60,83
0,58,35
0,58,78
0,55,57
0,37,31
0,58,45
0,53,57
0,41,31
0,67,83
0.2112675,60,31
0.10563375,60,33
0.2112675,63,69
0,55,59
0,60,83
0,58,35
0,58,78
0,55,57
0,37,31
0,58,45
0,38,50
0.5960265,69,83
0.5960265,57,58
0,60,34
0,64,47
0,40,50
0.5960265,67,83
0.5960265,55,58
0,59,34
0,62,47
0,45,39
0,38,50
0.5960265,69,83
0.5960265,57,58
0,60,34
0,64,47
0.397351,76,39
0.397351,74,59
0.1986755,72,50
0,71,76
0,72,53
0,71,86
0,40,50
0.5960265,67,83
0,69,66
0,55,58
0,59,34
0,62,47
0,45,39
0,37,56
0,68,72
0.75,57,41
0,37,56
0,66,72
0.375,64,58
0,59,43
0,49,35
0,63,78
0,56,68
0,66,72
0,37,56
0.75,57,41
0,63,72
0,37,56
0,61,43
0,64,58
0,49,35
0,63,78
0,56,68
0,37,56
0,68,72
0.75,57,41
0,37,56
0,66,72
0.375,64,58
0,59,43
0,49,35
0,63,78
0,56,68
0,66,72
0,37,56
0.75,57,41
0,63,72
0,37,56
0,61,43
0,64,58
0,49,35
0,63,78
0,56,68
0,36,66
0.1960785,60,40
0.1960785,65,58
0.1960785,55,52
0.06127453125,56,60
0,65,77
0.1960785,70,88
0.06127453125,55,58
0,65,46
0.06127453125,68,73
0.06127453125,55,41
0,65,52
0.06127453125,67,82
0.06127453125,56,68
0.06127453125,65,87
0.06127453125,36,66
0.1960785,60,40
0.1960785,65,58
0.1960785,55,52
0.06127453125,56,60
0,65,77
0.1960785,70,88
0.06127453125,55,58
0,65,46
0.06127453125,68,73
0.06127453125,55,41
0,65,52
0.06127453125,67,82
0.06127453125,56,68
0.06127453125,65,87
0.06127453125,36,66
0.1960785,60,40
0.1960785,65,58
0.1960785,55,52
0.06127453125,56,60
0,65,77
0.1960785,72,88
0.06127453125,55,58
0,65,46
0.06127453125,68,73
0.06127453125,55,41
0,65,52
0.06127453125,67,82
0.06127453125,56,68
0.06127453125,65,87
0.06127453125,36,66
0.1960785,60,40
0.1960785,65,58
0.1960785,55,52
0.06127453125,56,60
0,65,77
0.1960785,72,88
0.06127453125,55,58
0,65,46
0.06127453125,68,73
0.06127453125,55,41
0,65,52
0.06127453125,60,82
0.06127453125,56,68
0.06127453125,65,87
0,75,58
0,39,36
0,60,36
0,62,64
0,65,81
0.7272719999999999,74,45
0,72,60
0,77,76
0,72,64
0,67,50
0,62,45
0,60,36
0,38,36
0,74,58
0,72,83
0,70,66
0,70,66
0,39,36
0,60,36
0,62,64
0,65,81
0.7272719999999999,67,58
0,69,58
0,70,76
0,72,62
0,36,36
0,60,36
0,65,45
0,74,64
0,62,58
0,67,52
0,38,76
0,40,52
0,68,34
0.212766,75,80
0,61,64
0,59,52
0,40,55
0,73,53
0,58,78
0,40,44
0,58,69
0,40,68
0,32,52
0.212766,71,71
0,59,91
0,27,36
0,39,55
0,68,98
0,32,52
0,44,44
0.212766,63,52
0,44,68
0,40,52
0,68,34
0.212766,75,80
0,61,64
0,59,52
0,40,55
0,78,96
0,58,78
0,40,44
0,58,69
0,40,68
0,32,52
0.212766,73,94
0,59,91
0,27,36
0,39,55
0,68,98
0,32,52
0,44,44
0.212766,63,52
0,44,68
0,40,52
0,68,34
0.212766,75,80
0,61,64
0,59,52
0,40,55
0,73,53
0,58,78
0,40,44
0,58,69
0,40,68
0,32,52
0.212766,71,71
0,59,91
0,27,36
0,39,55
0,68,98
0,32,52
0,44,44
0.212766,63,52
0,44,68
0,40,52
0,68,34
0.212766,75,80
0,61,64
0,59,52
0,40,55
0,80,96
0,58,78
0,40,44
0,58,69
0,40,68
0,32,52
0.212766,75,94
0,59,91
0,27,36
0,39,55
0,73,98
0,32,52
0,44,44
0.212766,63,52
0,44,68
0,71,81
0,42,28
0.20833349999999998,69,47
0.20833349999999998,59,65
0.02170140625,43,71
0.02170140625,64,65
0.02170140625,43,40
0.02170140625,76,81
0,66,65
0.20833349999999998,71,73
0.02170140625,69,87
0.41666699999999995,66,47
0.02170140625,71,81
0,42,28
0.20833349999999998,69,47
0.20833349999999998,59,65
0.02170140625,43,71
0.02170140625,64,65
0.02170140625,43,40
0.02170140625,76,81
0,66,65
0.20833349999999998,71,73
0.02170140625,69,87
0.41666699999999995,66,47
0.02170140625,71,81
0,42,28
0.20833349999999998,69,47
0.20833349999999998,59,65
0.02170140625,43,71
0.02170140625,64,65
0.02170140625,43,40
0.02170140625,76,81
0,66,65
0.20833349999999998,71,73
0.02170140625,69,87
0.41666699999999995,66,47
0.02170140625,43,28
0,71,81
0.20833349999999998,69,47
0.20833349999999998,59,65
0.02170140625,42,71
0.02170140625,64,65
0.02170140625,42,40
0.02170140625,76,81
0,66,65
0.20833349999999998,71,73
0.02170140625,69,87
0.41666699999999995,66,47
0,37,45
0.36363599999999996,56,60
0.36363599999999996,68,85
0.36363599999999996,57,56
0,61,66
0.36363599999999996,64,99
0,42,45
0,66,85
0.36363599999999996,56,60
0,33,66
0,64,85
0.36363599999999996,57,56
0,61,66
0,32,43
0,63,99
0,37,45
0.36363599999999996,56,60
0.36363599999999996,68,85
0.36363599999999996,57,56
0,61,66
0.36363599999999996,64,99
0,42,45
0,66,85
0.36363599999999996,56,60
0,33,66
0,64,85
0.36363599999999996,57,56
0,61,66
0,63,99
0,32,43
0,61,52
0,68,82
0.357143,63,44
0.357143,39,40
0,51,40
0,56,47
0,61,55
0.05580359375,52,40
0,40,40
0,59,47
0,64,55
0.05580359375,71,41
0,56,68
0.1785715,73,84
0.05580359375,68,54
0.029761916666666666,68,82
0.357143,63,44
0.357143,39,40
0,51,40
0,56,47
0,61,55
0.05580359375,52,40
0,40,40
0,59,47
0,64,55
0.05580359375,71,41
0,56,68
0.1785715,73,84
0.05580359375,68,54
0.11532742708333332,75,82
0.30505964583333334,63,44
0.357143,39,40
0,51,40
0,56,47
0,61,55
0.05580359375,52,40
0,40,40
0,59,47
0,64,55
0.05580359375,71,41
0,56,68
0.1785715,73,84
0.05580359375,70,54
0.07440479166666666,71,82
0.357143,63,44
0.312500125,39,40
0.044642875,51,40
0,56,47
0,61,55
0.01116071875,52,40
0,40,40
0,59,47
0,64,55
0.05580359375,70,62
0.10044646874999999,71,41
0,56,68
0.1785715,73,84
0.05580359375,68,54
0,41,62
0,68,88
0.2040815,63,74
0.408163,53,31
0,63,50
0,58,78
0,63,95
0,48,22
0,60,73
0.408163,65,47
0,36,57
0,65,88
0.2040815,60,74
0.408163,48,31
0,61,50
0,37,73
0,56,78
0,60,95
0,48,22
0,58,73
0.408163,65,47
0,41,62
0,68,88
0.2040815,63,74
0.2040815,70,57
0.051020375,72,88
0.11904754166666667,53,31
0,75,73
0,63,50
0,70,90
0,58,78
0,72,86
0,63,95
0,72,80
0,48,22
0,73,83
0,60,73
0.13605433333333333,72,97
0.2040815,65,47
0,36,57
0,65,88
0.2040815,60,74
0.017006791666666667,68,85
0.2040815,48,31
0.017006791666666667,70,81
0,61,50
0,72,100
0,37,73
0,56,78
0.017006791666666667,70,81
0,60,95
0,70,74
0,48,22
0,58,73
0.017006791666666667,70,97
0.2040815,65,47
0,40,48
0,71,73
0.1973685,67,60
0,57,41
0.016447375,69,69
0.016447375,57,41
0.016447375,64,52
0.016447375,57,21
0.016447375,62,75
0.016447375,60,21
0.016447375,60,48
0.016447375,40,48
0,71,73
0.1973685,67,60
0,57,41
0.016447375,69,69
0.016447375,57,41
0.016447375,64,52
0.016447375,57,21
0.016447375,62,75
0.016447375,60,21
0.016447375,60,48
0.016447375,33,48
0,71,73
0.1973685,67,60
0,57,41
0.016447375,69,69
0.016447375,57,41
0.016447375,64,52
0.016447375,57,21
0.016447375,62,75
0.016447375,60,21
0.016447375,60,48
0.016447375,33,48
0,71,73
0.1973685,67,60
0,57,41
0.016447375,69,69
0.016447375,57,41
0.016447375,64,52
0.016447375,57,21
0.016447375,62,75
0.016447375,60,21
0.016447375,64,48
0,34,29
0,65,72
0.382166,53,74
0.382166,58,33
0.382166,61,14
0.382166,70,50
0.382166,77,62
0.382166,82,91
0.382166,78,70
0,77,70
0,34,29
0,65,72
0.382166,53,74
0.382166,58,33
0.382166,61,14
0.382166,70,50
0,77,62
0.382166,82,91
0.382166,78,70
0,34,29
0,65,72
0.382166,53,74
0.382166,58,33
0.382166,61,14
0.382166,70,50
0.382166,77,62
0.382166,82,91
0.382166,78,70
0,77,70
0,34,29
0,65,72
0.382166,53,74
0.382166,58,33
0.382166,61,14
0.382166,70,50
0,77,62
0.382166,82,91
0.382166,78,70
0,50,12
0,61,50
0,57,39
0,54,12
0,38,12
0,66,60
1.0909079999999998,73,66
0.09469687499999999,76,91
0,40,12
0,52,12
0,49,12
0,56,39
0,64,50
0,68,60
1.0909079999999998,71,70
0,56,12
0,66,60
0,64,50
0,59,39
0.09469687499999999,76,99
0,69,60
0,50,12
0,61,50
0,57,39
0,54,12
0,38,12
0,66,60
0.09469687499999999,73,66
0.09469687499999999,76,91
0,40,12
0,52,12
0,49,12
0,56,39
0,64,50
0.09469687499999999,68,60
0.6325751249999999,76,66
0.09469687499999999,71,89
0,61,39
0,66,50
0,69,60
0,56,12
0.09469687499999999,73,81
0,61,19
0,65,33
0,70,62
0,46,19
0,68,19
0.20689649999999998,75,85
0.8275859999999999,77,56
0.8275859999999999,80,66
0.8275859999999999,82,54
0,68,62
0,63,33
0,60,19
0,56,21
0,41,19
0.20689649999999998,75,85
0.8275859999999999,77,56
0.8275859999999999,80,66
0.8275859999999999,82,54
0,63,62
0,60,33
0,58,21
0,51,35
0.20689649999999998,70,85
0.8275859999999999,73,56
0.8275859999999999,75,66
0.8275859999999999,80,54
0,63,62
0,60,33
0,58,21
0,51,35
0.20689649999999998,68,85
0.8275859999999999,73,56
0.8275859999999999,75,66
0.8275859999999999,80,54
0,47,19
0,67,89
0.37037,57,60
0,52,45
0.185185,71,78
0.185185,59,39
0,64,64
0,71,47
0.185185,62,45
0,71,89
0.185185,59,14
0,69,52
0,71,45
0,43,19
0,69,89
0.37037,57,60
0,52,45
0.185185,74,78
0.185185,59,39
0,64,64
0,71,47
0.185185,62,45
0,71,89
0.185185,59,14
0,69,52
0,67,45
0,36,19
0,67,89
0.37037,57,60
0,52,45
0.185185,69,78
0.185185,59,39
0,64,64
0,71,47
0.185185,62,45
0,74,78
0.185185,59,14
0,40,19
0,69,89
0.37037,57,60
0,52,45
0.185185,71,60
0.185185,59,39
0,64,64
0,71,64
0.185185,62,45
0,67,60
0.185185,59,14
0,43,19
0,74,65
0.2040815,55,10
0,70,19
0,51,8
0,72,25
0,51,15
0,72,41
0,50,6
0,67,23
0,39,24
0,70,46
0,48,11
0,48,25
0,69,33
0,48,29
0,70,46
0,43,19
0,74,65
0.2040815,55,10
0,70,19
0,51,8
0,72,25
0,51,15
0,72,41
0,50,6
0,67,23
0,39,24
0,70,46
0,48,11
0,48,25
0,69,33
0,48,29
0,70,46
0,39,19
0,67,65
0.2040815,62,19
0,55,10
0,63,25
0,51,8
0,65,41
0,51,15
0,50,6
0,67,23
0,62,46
0,41,24
0,48,11
0,65,33
0,48,25
0,62,46
0,48,29
0,65,65
0,39,19
0.2040815,62,19
0,51,10
0,62,25
0,48,8
0,63,41
0,48,15
0,62,23
0,48,6
0,60,46
0,41,24
0,48,11
0,62,33
0,48,25
0,62,46
0,48,29
0,34,25
0,62,72
0.20547949999999998,48,27
0.20547949999999998,52,45
0.6164384999999999,53,66
0.20547949999999998,60,39
0,36,25
0,64,72
0.20547949999999998,45,27
0.20547949999999998,53,45
0.6164384999999999,57,66
0.20547949999999998,60,39
0.20547949999999998,65,43
0,38,25
0,64,72
0.20547949999999998,50,27
0.20547949999999998,53,45
0.6164384999999999,55,66
0.20547949999999998,60,39
0,67,72
0,33,25
0.20547949999999998,45,27
0.20547949999999998,53,45
0.6164384999999999,57,66
0.20547949999999998,60,39
0.20547949999999998,69,43
0,34,25
0,62,72
0.20547949999999998,48,27
0.20547949999999998,52,45
0.6164384999999999,53,66
0.20547949999999998,60,39
0,36,25
0,64,72
0.20547949999999998,45,27
0.20547949999999998,53,45
0.6164384999999999,57,66
0.20547949999999998,60,39
0.20547949999999998,65,43
0,38,25
0,64,72
0.20547949999999998,50,27
0.20547949999999998,53,45
0.6164384999999999,55,66
0.20547949999999998,60,39
0,67,72
0,33,25
0.20547949999999998,45,27
0.20547949999999998,53,45
0.6164384999999999,57,66
0.20547949999999998,60,39
0.20547949999999998,69,43
0,42,64
0.10714274999999998,42,47
0,61,37
0.10714274999999998,42,60
0,64,76
0.21428549999999996,66,60
0.21428549999999996,69,95
0.10714274999999998,49,41
0,37,43
0,68,64
0.10714274999999998,61,52
0,37,31
0.10714274999999998,66,87
0,37,66
0.21428549999999996,73,89
0.10714274999999998,71,39
0,47,39
0,38,12
0,64,64
0,56,31
0,59,39
0,61,62
0.10714274999999998,69,72
0,38,33
0.10714274999999998,71,91
0,38,52
0,42,64
0.10714274999999998,42,47
0,61,37
0.10714274999999998,42,60
0,64,76
0.21428549999999996,66,60
0.21428549999999996,69,95
0.10714274999999998,49,41
0,37,43
0,68,64
0.10714274999999998,61,52
0,37,31
0.10714274999999998,66,87
0,37,66
0.21428549999999996,73,89
0.10714274999999998,71,39
0,47,39
0,38,12
0,64,64
0,56,31
0,59,39
0,61,62
0.10714274999999998,69,72
0,38,33
0.10714274999999998,71,91
0,38,52
0,54,39
0,61,58
0,64,68
0,38,56
0.09374990624999999,66,78
1.62053409375,68,43
0.4285709999999999,69,64
0.09374990624999999,68,39
0.4285709999999999,66,64
0,54,39
0,61,58
0,64,68
0,38,56
0.09374990624999999,66,78
1.62053409375,68,43
0.4285709999999999,69,64
0.09374990624999999,71,39
0.4285709999999999,64,64
0,45,31
0,73,70
0.222222,71,45
0.222222,66,31
0,47,31
0.222222,69,31
0,42,31
0,68,56
0.222222,61,58
0,69,37
0,68,76
0,37,31
0,66,78
0,64,72
0,57,47
0,37,31
0.444444,61,66
0,45,31
0,73,70
0.222222,71,45
0.222222,66,31
0,47,31
0.222222,69,31
0,42,31
0,68,56
0.222222,61,58
0,69,37
0,68,76
0,37,31
0,66,78
0,64,72
0,57,47
0,37,31
0.444444,61,66
0,38,31
0,73,70
0.222222,71,45
0.222222,66,31
0,40,31
0.222222,69,31
0,37,31
0,68,56
0.222222,61,58
0,69,37
0,68,76
0,37,31
0,66,78
0,64,72
0,57,47
0,37,31
0.444444,61,66
0,38,31
0,73,70
0.222222,71,45
0.222222,66,31
0,40,31
0.222222,69,31
0,42,31
0,68,56
0.222222,61,58
0,69,37
0,68,76
0,37,31
0,66,78
0,64,72
0,57,47
0,37,31
0.444444,61,66
0,45,19
0,75,74
0.10204075,71,54
0,56,44
0,68,60
0,64,53
0,71,69
0,49,30
0,56,39
0,68,53
0.2040815,64,29
0.10204075,71,69
0.2040815,61,37
0,45,19
0,75,74
0.10204075,71,54
0,56,44
0,68,60
0,64,53
0,71,69
0,49,30
0,56,39
0,68,53
0.2040815,64,29
0.10204075,71,69
0.2040815,61,37
0,45,19
0,75,74
0.10204075,71,54
0,56,44
0,68,60
0,64,53
0,78,75
0,71,69
0,49,30
0,80,47
0,56,39
0,68,53
0,64,29
0.10204075,78,54
0,71,69
0.10204075,76,65
0,61,37
0,45,19
0,75,74
0.10204075,71,54
0,56,44
0,68,60
0,64,53
0,75,75
0,71,69
0,49,30
0,78,47
0,56,39
0,68,53
0,64,29
0.10204075,80,54
0,71,69
0.10204075,78,65
0,61,37
0,66,52
0,49,19
0,37,19
0.21582749999999998,61,19
0,56,19
0,64,19
0,51,19
0,39,19
0.21582749999999998,59,19
0,68,52
0,63,19
0,64,35
0,52,33
0.053956874999999994,71,66
0,61,29
0.21582749999999998,52,33
0,33,19
0,75,52
0,49,19
0.21582749999999998,66,19
0,71,19
0,56,19
0,33,19
0,51,19
0.21582749999999998,68,52
0,59,19
0,63,19
0,64,35
0,52,33
0.053956874999999994,66,66
0,61,29
0.21582749999999998,52,33
0,66,52
0,49,19
0,37,19
0.21582749999999998,61,19
0,56,19
0,64,19
0,51,19
0,39,19
0.21582749999999998,59,19
0,68,52
0,63,19
0,64,35
0,52,33
0.053956874999999994,71,66
0,61,29
0.21582749999999998,52,33
0,75,52
0,33,19
0,49,19
0.21582749999999998,76,78
0,61,19
0,71,19
0,33,19
0,51,19
0.21582749999999998,68,52
0,59,19
0,63,19
0,64,35
0,52,33
0.053956874999999994,66,66
0,61,29
0.21582749999999998,52,33
0.43165499999999996,75,52
0.21582749999999998,71,78
0,70,54
0,66,78
0,61,72
0,58,60
0,51,31
1.0714275,73,91
0.6428564999999999,75,50
1.0714275,80,50
0,78,54
0,56,78
0,51,23
0,60,78
0,75,85
0,73,54
0.21428549999999996,70,72
0,70,54
0,58,78
0,54,78
0,47,41
1.0714275,73,91
0.6428564999999999,68,50
1.0714275,70,50
0,73,54
0,63,78
0,56,78
0,49,27
0,68,85
0,66,54
0.21428549999999996,68,72
0.6428564999999999,70,74
0,61,62
0,56,39
0,52,31
0,45,41
0.8053699999999999,59,12
0,66,47
0.12164442708333331,64,47
0,56,45
0,68,66
0.12164442708333331,61,62
0,44,41
0,54,39
0,51,31
0.8053699999999999,75,47
0,71,12
0.12164442708333331,59,45
0,66,47
0,71,66
0.12164442708333331,61,62
0,56,39
0,52,31
0,45,41
0.8053699999999999,59,12
0,66,47
0.12164442708333331,64,47
0,56,45
0,68,66
0.12164442708333331,75,45
0,61,62
0,44,41
0,54,39
0,51,31
0.12164442708333331,76,33
0.12164442708333331,75,47
0,71,12
0.02097317708333333,71,27
0.40268499999999996,68,50
0.12164442708333331,59,45
0,66,47
0,71,66
0,60,38
0,69,46
0.18987349999999997,57,44
0.18987349999999997,50,25
0,69,65
0,58,38
0,65,34
0,64,47
0,60,42
0,53,41
0,57,28
0,62,34
0,52,25
0,58,22
0,64,44
0,55,21
0,65,55
0,60,38
0,69,46
0.18987349999999997,57,44
0.18987349999999997,50,25
0,72,65
0,57,38
0,60,42
0,64,47
0,67,34
0,53,41
0,57,28
0,62,34
0,64,44
0,58,22
0,52,25
0.027689885416666664,74,63
0.5696205,72,46
0,65,55
0,55,21
0.027689885416666664,72,51
0.039556979166666666,69,61
0,43,29
0.20689649999999998,62,56
0.20689649999999998,69,78
0.20689649999999998,72,31
0,77,78
0,43,29
0.20689649999999998,62,56
0.20689649999999998,69,78
0.20689649999999998,74,78
0,72,31
0,45,39
0.20689649999999998,62,56
0.20689649999999998,69,78
0.20689649999999998,72,31
0,76,78
0,38,29
0.20689649999999998,62,56
0.20689649999999998,69,78
0.20689649999999998,76,78
0,72,31
0,38,29
0.20689649999999998,62,56
0.20689649999999998,69,78
0.20689649999999998,74,78
0,72,31
0,45,39
0.20689649999999998,62,56
0.20689649999999998,69,78
0.20689649999999998,72,31
0,76,78
0,43,29
0.20689649999999998,62,56
0.20689649999999998,69,78
0.20689649999999998,72,31
0,77,78
0,43,29
0.20689649999999998,62,56
0.20689649999999998,69,78
0.20689649999999998,74,78
0,72,31
0,45,39
0.20689649999999998,62,56
0.20689649999999998,69,78
0.20689649999999998,72,31
0,76,78
0,38,29
0.20689649999999998,62,56
0.20689649999999998,69,78
0.20689649999999998,76,78
0,72,31
0,38,29
0.20689649999999998,62,56
0.20689649999999998,69,78
0.20689649999999998,74,78
0,72,31
0,45,39
0.20689649999999998,62,56
0.20689649999999998,69,78
0.20689649999999998,72,31
0,76,78
0,44,14
0,67,56
0.222222,56,19
0.222222,63,19
0,60,19
0,44,35
0,46,14
0,70,56
0.222222,53,19
0.222222,65,19
0,60,19
0,46,35
0,36,14
0,62,52
0,55,19
0,63,47
0,62,54
0,60,19
0,36,35
0,36,14
0,62,45
0,53,19
0,63,66
0,62,37
0,60,19
0,36,35
0.222222,65,58
0,44,14
0,67,56
0.222222,56,19
0.222222,63,19
0,60,19
0,44,35
0,46,14
0,70,56
0.222222,53,19
0.222222,65,19
0,60,19
0,46,35
0,36,14
0,62,52
0,55,19
0,63,47
0,62,54
0,60,19
0,36,35
0,36,14
0,62,45
0,55,19
0,63,66
0,62,37
0,60,19
0,36,35
0.222222,65,58
0,57,68
0,55,68
0,53,52
0,38,23
0.065559375,62,91
0,33,23
0,45,52
0,57,68
0,55,68
0.065559375,60,91
1.6127606250000002,65,23
0,67,54
0,65,43
0,69,101
0,57,68
0,50,52
0,41,23
0,65,68
0.065559375,69,91
2.451920625,72,64
0,60,68
0,53,68
0,43,52
0,33,23
0.065559375,62,91
1.6127606250000002,65,23
0,69,54
0,67,43
0,65,101
